<svg width="96" height="96" viewBox="0 0 96 96" fill="none" xmlns="http://www.w3.org/2000/svg">
  <defs>
    <linearGradient id="g" x1="18" y1="12" x2="78" y2="84" gradientUnits="userSpaceOnUse">
      <stop stop-color="#8FF5D1"/>
      <stop offset="1" stop-color="#00A884"/>
    </linearGradient>
    <filter id="shadow" x="6" y="8" width="84" height="82" filterUnits="userSpaceOnUse" color-interpolation-filters="sRGB">
      <feDropShadow dx="0" dy="4" stdDeviation="5" flood-color="#005C51" flood-opacity="0.22"/>
    </filter>
  </defs>
  <g filter="url(#shadow)">
    <rect x="18" y="20" width="60" height="58" rx="18" fill="#F5FFFB"/>
    <rect x="18" y="20" width="60" height="58" rx="18" stroke="#B6F1DF" stroke-width="3"/>
    <path d="M33 17v12M63 17v12" stroke="#007D74" stroke-width="5" stroke-linecap="round"/>
    <path d="M25 36h46" stroke="#D8F7EE" stroke-width="3" stroke-linecap="round"/>
    <circle cx="48" cy="51" r="18" fill="url(#g)"/>
    <path d="M38.5 51.2l6.5 6.7 13-14" stroke="white" stroke-width="5" stroke-linecap="round" stroke-linejoin="round"/>
  </g>
  <path d="M72 20c1.7-4.2 5.1-7.3 9.5-8.5-4.3-1.2-7.8-4.3-9.5-8.5-1.7 4.2-5.1 7.3-9.5 8.5 4.4 1.2 7.8 4.3 9.5 8.5z" fill="#20E5D0" opacity="0.9"/>
  <text x="48" y="91" text-anchor="middle" font-family="Pretendard, Arial, sans-serif" font-size="14" font-weight="800" fill="#007D74">출근</text>
</svg>
